<svg width="32" height="32" viewBox="0 0 32 32" fill="none" xmlns="http://www.w3.org/2000/svg">
<circle cx="16" cy="16" r="15.5" fill="#4267B2" stroke="white"/>
<path d="M15.7758 9.33661C12.4118 9.44661 9.58116 12.1673 9.34849 15.5253C9.10249 19.0779 11.6432 22.0799 15.0025 22.5846V17.7666H13.9265C13.4425 17.7666 13.0505 17.3746 13.0505 16.8906C13.0505 16.4066 13.4425 16.0146 13.9265 16.0146H15.0018V14.8486C15.0018 12.9179 15.9425 12.0706 17.5472 12.0706C17.7852 12.0706 17.9885 12.0759 18.1612 12.0846C18.5852 12.1053 18.9138 12.4586 18.9138 12.8833C18.9138 13.3253 18.5558 13.6833 18.1138 13.6833H17.8192C17.1378 13.6833 16.8998 14.3293 16.8998 15.0573V16.0153H18.1465C18.5405 16.0153 18.8418 16.3666 18.7818 16.7559L18.7098 17.2233C18.6612 17.5366 18.3918 17.7679 18.0745 17.7679H16.8998V22.5993C20.1552 22.1573 22.6652 19.3746 22.6652 15.9999C22.6652 12.2439 19.5592 9.21394 15.7758 9.33661Z" fill="white"/>
</svg>
