<svg width="26" height="26" viewBox="0 0 26 26" fill="none" xmlns="http://www.w3.org/2000/svg">
<path fill-rule="evenodd" clip-rule="evenodd" d="M11.2638 2.34707C10.8544 3.68009 10.0133 6.59608 9.54328 9.46883C10.7631 9.66575 11.9546 9.79159 13.0002 9.79159C14.0457 9.79159 15.2373 9.66575 16.457 9.46883C15.987 6.59608 15.146 3.68009 14.7365 2.34707C14.1717 2.25578 13.5918 2.20825 13.0002 2.20825C12.4086 2.20825 11.8286 2.25577 11.2638 2.34707ZM16.7167 2.86506C17.1662 4.42142 17.7892 6.78848 18.1782 9.15087C19.8578 8.8049 21.4423 8.38263 22.5931 8.05135C21.3597 5.66558 19.2623 3.79893 16.7167 2.86506ZM23.2708 9.67702C22.0549 10.031 20.2936 10.5064 18.4175 10.8882C18.4957 11.6136 18.5418 12.3263 18.5418 12.9999C18.5418 13.9827 18.4435 15.0524 18.2894 16.1278C20.5352 15.6596 22.5952 15.0612 23.653 14.7363C23.7443 14.1715 23.7918 13.5915 23.7918 12.9999C23.7918 11.8394 23.6089 10.7229 23.2708 9.67702ZM23.135 16.7164C21.8258 17.0946 19.9444 17.5951 17.9761 17.9758C17.5953 19.9441 17.0948 21.8255 16.7166 23.1348C19.6866 22.0453 22.0455 19.6864 23.135 16.7164ZM14.7365 23.6528C15.0615 22.5949 15.6599 20.5349 16.1281 18.2892C15.0527 18.4432 13.983 18.5416 13.0002 18.5416C12.0173 18.5416 10.9476 18.4432 9.87225 18.2892C10.3405 20.5349 10.9389 22.5949 11.2638 23.6528C11.8286 23.7441 12.4086 23.7916 13.0002 23.7916C13.5918 23.7916 14.1717 23.7441 14.7365 23.6528ZM9.28369 23.1348C8.90553 21.8255 8.40501 19.9441 8.02427 17.9758C6.05597 17.5951 4.17457 17.0946 2.86528 16.7164C3.9548 19.6864 6.31368 22.0453 9.28369 23.1348ZM2.34732 14.7363C3.40513 15.0612 5.46514 15.6596 7.7109 16.1278C7.55686 15.0524 7.4585 13.9827 7.4585 12.9999C7.4585 12.3263 7.50466 11.6136 7.58279 10.8882C5.7067 10.5064 3.94541 10.031 2.72951 9.67702C2.39139 10.7229 2.2085 11.8394 2.2085 12.9999C2.2085 13.5915 2.25602 14.1715 2.34732 14.7363ZM3.40723 8.05135C4.55802 8.38263 6.14254 8.8049 7.8221 9.15087C8.2111 6.78848 8.83413 4.42142 9.28366 2.86506C6.73804 3.79893 4.64061 5.66557 3.40723 8.05135ZM9.30927 11.2037C9.24477 11.8343 9.2085 12.439 9.2085 12.9999C9.2085 14.0477 9.33491 15.2429 9.53292 16.4672C10.7571 16.6652 11.9523 16.7916 13.0002 16.7916C14.048 16.7916 15.2432 16.6652 16.4674 16.4672C16.6654 15.2429 16.7918 14.0477 16.7918 12.9999C16.7918 12.439 16.7556 11.8343 16.6911 11.2037C15.4278 11.406 14.1538 11.5416 13.0002 11.5416C11.8465 11.5416 10.5725 11.406 9.30927 11.2037ZM10.4057 0.727115C11.2436 0.550811 12.1115 0.458252 13.0002 0.458252C13.8888 0.458252 14.7568 0.550811 15.5946 0.727116C19.7011 1.59121 23.0648 4.46152 24.6166 8.26389C25.2134 9.72633 25.5418 11.3259 25.5418 12.9999C25.5418 13.8886 25.4493 14.7565 25.273 15.5944C24.2534 20.4397 20.4399 24.2532 15.5946 25.2727C14.7568 25.449 13.8888 25.5416 13.0002 25.5416C12.1115 25.5416 11.2436 25.449 10.4057 25.2727C5.56038 24.2532 1.74691 20.4397 0.727359 15.5944C0.551054 14.7565 0.458496 13.8886 0.458496 12.9999C0.458496 11.3245 0.787472 9.72383 1.38517 8.26046C2.9375 4.4598 6.30042 1.59095 10.4057 0.727115Z" fill="#333132"/>
</svg>
