<svg width="28" height="28" viewBox="0 0 28 28" fill="none" xmlns="http://www.w3.org/2000/svg">
<path d="M20.359 26.5416C19.0407 26.5416 17.6523 26.2266 16.2173 25.6199C14.8173 25.0249 13.4057 24.2083 12.029 23.2166C10.664 22.2133 9.34565 21.0933 8.09732 19.8683C6.86065 18.6199 5.74065 17.3016 4.74898 15.9483C3.74565 14.5483 2.94065 13.1483 2.36898 11.7949C1.76232 10.3483 1.45898 8.94825 1.45898 7.62992C1.45898 6.71992 1.62232 5.85659 1.93732 5.05158C2.26398 4.22325 2.78898 3.45325 3.50065 2.78825C4.39898 1.90159 5.42565 1.45825 6.52232 1.45825C6.97732 1.45825 7.44398 1.56325 7.84065 1.74992C8.29565 1.95992 8.68065 2.27492 8.96065 2.69492L11.6673 6.50992C11.9123 6.84825 12.099 7.17492 12.2273 7.50159C12.379 7.85158 12.4607 8.20159 12.4607 8.53992C12.4607 8.98325 12.3323 9.41492 12.0873 9.82325C11.9123 10.1383 11.644 10.4766 11.3056 10.8149L10.5123 11.6433C10.524 11.6783 10.5357 11.7016 10.5473 11.7249C10.6873 11.9699 10.9673 12.3899 11.504 13.0199C12.0757 13.6733 12.6123 14.2683 13.149 14.8166C13.8373 15.4933 14.409 16.0299 14.9457 16.4733C15.6107 17.0333 16.0423 17.3133 16.299 17.4416L16.2757 17.4999L17.1273 16.6599C17.489 16.2983 17.839 16.0299 18.1773 15.8549C18.819 15.4583 19.6357 15.3883 20.4523 15.7266C20.7557 15.8549 21.0823 16.0299 21.4323 16.2749L25.3057 19.0283C25.7373 19.3199 26.0523 19.6933 26.239 20.1366C26.414 20.5799 26.4956 20.9883 26.4956 21.3966C26.4956 21.9566 26.3673 22.5166 26.1223 23.0416C25.8773 23.5666 25.574 24.0216 25.189 24.4416C24.524 25.1766 23.8007 25.7016 22.9607 26.0399C22.1557 26.3666 21.2807 26.5416 20.359 26.5416ZM6.52232 3.20825C5.88065 3.20825 5.28565 3.48825 4.71398 4.04825C4.17732 4.54992 3.80398 5.09825 3.57065 5.69325C3.32565 6.29992 3.20898 6.94159 3.20898 7.62992C3.20898 8.71492 3.46565 9.89325 3.97898 11.1066C4.50398 12.3433 5.23898 13.6266 6.17232 14.9099C7.10565 16.1933 8.16732 17.4416 9.33398 18.6199C10.5007 19.7749 11.7607 20.8483 13.0556 21.7933C14.3156 22.7149 15.6107 23.4616 16.894 23.9983C18.889 24.8499 20.7557 25.0483 22.2957 24.4066C22.8907 24.1616 23.4156 23.7883 23.894 23.2516C24.1623 22.9599 24.3723 22.6449 24.5473 22.2716C24.6873 21.9799 24.7573 21.6766 24.7573 21.3733C24.7573 21.1866 24.7223 20.9999 24.629 20.7899C24.594 20.7199 24.524 20.5916 24.3023 20.4399L20.429 17.6866C20.1957 17.5233 19.9856 17.4066 19.7873 17.3249C19.5306 17.2199 19.4256 17.1149 19.029 17.3599C18.7957 17.4766 18.5856 17.6516 18.3523 17.8849L17.4657 18.7599C17.0107 19.2033 16.3107 19.3083 15.774 19.1099L15.459 18.9699C14.9807 18.7133 14.4207 18.3166 13.8023 17.7916C13.2423 17.3133 12.6357 16.7533 11.9007 16.0299C11.329 15.4466 10.7573 14.8283 10.1623 14.1399C9.61398 13.4983 9.21732 12.9499 8.97232 12.4949L8.83232 12.1449C8.76232 11.8766 8.73898 11.7249 8.73898 11.5616C8.73898 11.1416 8.89065 10.7683 9.18232 10.4766L10.0573 9.56658C10.2907 9.33325 10.4657 9.11158 10.5823 8.91325C10.6757 8.76158 10.7107 8.63325 10.7107 8.51659C10.7107 8.42325 10.6757 8.28325 10.6173 8.14325C10.5357 7.95658 10.4073 7.74658 10.244 7.52492L7.53732 3.69825C7.42065 3.53492 7.28065 3.41825 7.10565 3.33659C6.91898 3.25492 6.72065 3.20825 6.52232 3.20825ZM16.2757 17.5116L16.089 18.3049L16.404 17.4883C16.3457 17.4766 16.299 17.4883 16.2757 17.5116Z" fill="#333132"/>
<path d="M21.5833 11.3751C21.105 11.3751 20.7083 10.9784 20.7083 10.5001C20.7083 10.0801 20.2883 9.20508 19.5883 8.45842C18.9 7.72341 18.1417 7.29175 17.5 7.29175C17.0217 7.29175 16.625 6.89508 16.625 6.41675C16.625 5.93841 17.0217 5.54175 17.5 5.54175C18.6317 5.54175 19.8217 6.14841 20.86 7.25675C21.8283 8.29508 22.4583 9.56675 22.4583 10.5001C22.4583 10.9784 22.0617 11.3751 21.5833 11.3751Z" fill="#333132"/>
<path d="M25.6667 11.3749C25.1883 11.3749 24.7917 10.9783 24.7917 10.4999C24.7917 6.47492 21.525 3.20825 17.5 3.20825C17.0217 3.20825 16.625 2.81159 16.625 2.33325C16.625 1.85492 17.0217 1.45825 17.5 1.45825C22.4817 1.45825 26.5417 5.51825 26.5417 10.4999C26.5417 10.9783 26.145 11.3749 25.6667 11.3749Z" fill="#333132"/>
</svg>
