<svg width="20" height="20" viewBox="0 0 20 20" fill="none" xmlns="http://www.w3.org/2000/svg">
<path fill-rule="evenodd" clip-rule="evenodd" d="M0.25 8.71452C0.25 4.0401 4.03937 0.250732 8.71379 0.250732C13.3882 0.250732 17.1776 4.0401 17.1776 8.71452C17.1776 13.3889 13.3882 17.1783 8.71379 17.1783C4.03937 17.1783 0.25 13.3889 0.25 8.71452ZM8.71379 1.75073C4.86779 1.75073 1.75 4.86853 1.75 8.71452C1.75 12.5605 4.86779 15.6783 8.71379 15.6783C12.5598 15.6783 15.6776 12.5605 15.6776 8.71452C15.6776 4.86853 12.5598 1.75073 8.71379 1.75073ZM15.0402 15.041C15.3331 14.7481 15.808 14.7481 16.1009 15.041L19.5291 18.4693C19.822 18.7622 19.822 19.237 19.5291 19.5299C19.2362 19.8228 18.7614 19.8228 18.4685 19.5299L15.0402 16.1016C14.7473 15.8087 14.7473 15.3339 15.0402 15.041Z" fill="#333132"/>
</svg>
