<svg width="28" height="28" viewBox="0 0 28 28" fill="none" xmlns="http://www.w3.org/2000/svg">
<path fill-rule="evenodd" clip-rule="evenodd" d="M14 6.125C12.5503 6.125 11.375 7.30025 11.375 8.75C11.375 10.1997 12.5503 11.375 14 11.375C15.4497 11.375 16.625 10.1997 16.625 8.75C16.625 7.30025 15.4497 6.125 14 6.125ZM9.625 8.75C9.625 6.33375 11.5838 4.375 14 4.375C16.4162 4.375 18.375 6.33375 18.375 8.75C18.375 11.1662 16.4162 13.125 14 13.125C11.5838 13.125 9.625 11.1662 9.625 8.75ZM6.125 19.25C6.125 16.8338 8.08375 14.875 10.5 14.875L17.5 14.875C19.9162 14.875 21.875 16.8338 21.875 19.25C21.875 21.6662 19.9162 23.625 17.5 23.625H10.5C8.08375 23.625 6.125 21.6662 6.125 19.25ZM10.5 16.625C9.05025 16.625 7.875 17.8003 7.875 19.25C7.875 20.6997 9.05025 21.875 10.5 21.875H17.5C18.9497 21.875 20.125 20.6997 20.125 19.25C20.125 17.8003 18.9497 16.625 17.5 16.625H10.5Z" fill="#D43157"/>
<path d="M5.49431 21.078C5.36187 20.8571 5.1281 20.7083 4.87049 20.7083H4.66797C3.21822 20.7083 2.04297 19.5331 2.04297 18.0833C2.04297 16.6336 3.21822 15.4583 4.66797 15.4583H4.87049C5.1281 15.4583 5.36187 15.3096 5.49431 15.0887C5.81759 14.5493 5.46677 13.7083 4.83794 13.7083H4.66797C2.25172 13.7083 0.292969 15.6671 0.292969 18.0833C0.292969 20.4996 2.25172 22.4583 4.66797 22.4583H4.83794C5.46677 22.4583 5.81759 21.6174 5.49431 21.078Z" fill="#D43157"/>
<path d="M22.5083 21.078C22.185 21.6174 22.5358 22.4583 23.1647 22.4583H23.3346C25.7509 22.4583 27.7096 20.4996 27.7096 18.0833C27.7096 15.6671 25.7509 13.7083 23.3346 13.7083H23.1647C22.5358 13.7083 22.185 14.5493 22.5083 15.0887C22.6407 15.3096 22.8745 15.4583 23.1321 15.4583H23.3346C24.7844 15.4583 25.9596 16.6336 25.9596 18.0833C25.9596 19.5331 24.7844 20.7083 23.3346 20.7083H23.1321C22.8745 20.7083 22.6407 20.8571 22.5083 21.078Z" fill="#D43157"/>
<path d="M18.9326 11.8675C18.6262 12.3511 18.7814 13.0359 19.3505 13.0985C19.5094 13.116 19.671 13.125 19.8346 13.125C22.2509 13.125 24.2096 11.1662 24.2096 8.75C24.2096 6.33375 22.2509 4.375 19.8346 4.375C19.671 4.375 19.5094 4.38398 19.3505 4.40149C18.7814 4.46413 18.6262 5.14886 18.9326 5.63245L18.9571 5.67157C19.1412 5.96718 19.4864 6.125 19.8346 6.125C21.2844 6.125 22.4596 7.30025 22.4596 8.75C22.4596 10.1997 21.2844 11.375 19.8346 11.375C19.4864 11.375 19.1412 11.5328 18.9571 11.8284L18.9326 11.8675Z" fill="#D43157"/>
<path d="M9.04547 11.8284C8.86145 11.5328 8.51618 11.375 8.16797 11.375C6.71822 11.375 5.54297 10.1997 5.54297 8.75C5.54297 7.30025 6.71822 6.125 8.16797 6.125C8.51618 6.125 8.86145 5.96718 9.04547 5.67157L9.07003 5.63245C9.3764 5.14886 9.22117 4.46413 8.65214 4.40149C8.49316 4.38398 8.33161 4.375 8.16797 4.375C5.75172 4.375 3.79297 6.33375 3.79297 8.75C3.79297 11.1662 5.75172 13.125 8.16797 13.125C8.33161 13.125 8.49316 13.116 8.65214 13.0985C9.22117 13.0359 9.3764 12.3511 9.07003 11.8675L9.04547 11.8284Z" fill="#D43157"/>
</svg>
