<svg width="32" height="32" viewBox="0 0 32 32" fill="none" xmlns="http://www.w3.org/2000/svg">
<circle cx="16" cy="16" r="15.5" fill="#55ACEE" stroke="white"/>
<g clip-path="url(#clip0_7807_87713)">
<path d="M16.6523 12.7923L16.6838 13.3113L16.1592 13.2478C14.2496 13.0041 12.5813 12.1779 11.1649 10.7903L10.4724 10.1018L10.294 10.6102C9.91633 11.7436 10.1576 12.9406 10.9446 13.7456C11.3643 14.1905 11.2698 14.2541 10.5459 13.9892C10.294 13.9045 10.0737 13.8409 10.0527 13.8727C9.97928 13.9469 10.2311 14.9108 10.4304 15.2921C10.7032 15.8217 11.2593 16.3408 11.8679 16.648L12.382 16.8916L11.7734 16.9022C11.1859 16.9022 11.1649 16.9128 11.2279 17.1352C11.4377 17.8237 12.2666 18.5546 13.1899 18.8724L13.8404 19.0948L13.2738 19.4338C12.4345 19.9211 11.4482 20.1965 10.4619 20.2176C9.98977 20.2282 9.60156 20.2706 9.60156 20.3024C9.60156 20.4083 10.8816 21.0015 11.6266 21.2345C13.8614 21.923 16.5159 21.6265 18.5094 20.4507C19.9259 19.6139 21.3423 17.9508 22.0033 16.3408C22.3601 15.4828 22.7168 13.9151 22.7168 13.163C22.7168 12.6758 22.7483 12.6122 23.3358 12.0296C23.6821 11.6907 24.0073 11.3199 24.0703 11.214C24.1752 11.0127 24.1647 11.0127 23.6296 11.1928C22.7378 11.5106 22.6119 11.4682 23.0525 10.9916C23.3778 10.6526 23.766 10.0382 23.766 9.85816C23.766 9.82638 23.6086 9.87934 23.4303 9.97467C23.2414 10.0806 22.8217 10.2395 22.507 10.3348L21.9404 10.5149L21.4263 10.1653C21.143 9.97467 20.7443 9.76282 20.5344 9.69927C19.9993 9.55097 19.1809 9.57216 18.6983 9.74164C17.3868 10.2183 16.5579 11.447 16.6523 12.7923Z" fill="white"/>
</g>
<defs>
<clipPath id="clip0_7807_87713">
<rect width="16" height="16" fill="white" transform="translate(8 8)"/>
</clipPath>
</defs>
</svg>
