<svg width="32" height="32" viewBox="0 0 32 32" fill="none" xmlns="http://www.w3.org/2000/svg">
<circle cx="16" cy="16" r="15.5" fill="#4C6C91" stroke="white"/>
<path d="M16.0616 21.0148C16.0616 21.0148 16.3792 20.9801 16.5419 20.8086C16.6908 20.6514 16.6857 20.3548 16.6857 20.3548C16.6857 20.3548 16.6659 18.9699 17.3209 18.7654C17.9666 18.5643 18.7955 20.1047 19.6753 20.697C20.3398 21.1449 20.8443 21.0469 20.8443 21.0469L23.1952 21.0148C23.1952 21.0148 24.4244 20.9404 23.8416 19.9915C23.7934 19.9138 23.5016 19.2893 22.0942 18.0066C20.6196 16.664 20.8176 16.8811 22.5926 14.5583C23.6738 13.1438 24.1059 12.2803 23.9708 11.911C23.8425 11.5578 23.0471 11.6516 23.0471 11.6516L20.4009 11.6676C20.4009 11.6676 20.2047 11.6415 20.0592 11.7268C19.9172 11.8104 19.8251 12.0056 19.8251 12.0056C19.8251 12.0056 19.4067 13.0999 18.848 14.031C17.6696 15.9948 17.1987 16.0987 17.0059 15.977C16.5574 15.6923 16.6693 14.8346 16.6693 14.2254C16.6693 12.3217 16.9637 11.5282 16.0969 11.3229C15.8093 11.2545 15.5976 11.2097 14.8616 11.2021C13.9173 11.1928 13.1184 11.2054 12.6656 11.4226C12.3644 11.5671 12.1319 11.8899 12.274 11.9085C12.4487 11.9313 12.8447 12.0132 13.0547 12.2938C13.3259 12.6563 13.3164 13.4691 13.3164 13.4691C13.3164 13.4691 13.4722 15.71 12.9523 15.988C12.5959 16.179 12.107 15.7894 11.0559 14.0074C10.5179 13.0948 10.1116 12.0859 10.1116 12.0859C10.1116 12.0859 10.0333 11.8975 9.89296 11.7961C9.72338 11.6736 9.48665 11.6355 9.48665 11.6355L6.9722 11.6516C6.9722 11.6516 6.59431 11.6617 6.45571 11.8231C6.33262 11.9659 6.44625 12.2625 6.44625 12.2625C6.44625 12.2625 8.41493 16.784 10.6444 19.0629C12.6889 21.1516 15.0097 21.0148 15.0097 21.0148H16.0616Z" fill="white"/>
</svg>
